<svg width="48" height="48" viewBox="0 0 48 48" fill="none" xmlns="http://www.w3.org/2000/svg">
<path d="M36.2672 22C37.431 32.751 42 36 42 36H6C6 36 12 31.7334 12 16.8C12 13.4052 13.2643 10.1495 15.5147 7.74904C17.7652 5.34856 20.8174 4 24 4C24.6746 4 25.3434 4.0606 26 4.17898" stroke="white" stroke-width="1.5" stroke-linecap="round" stroke-linejoin="round"/>
<path d="M38 16C41.3138 16 44 13.3137 44 10C44 6.6863 41.3138 4 38 4C34.6862 4 32 6.6863 32 10C32 13.3137 34.6862 16 38 16Z" stroke="white" stroke-width="1.5" stroke-linecap="round" stroke-linejoin="round"/>
<path d="M27.46 42C27.1084 42.6062 26.6038 43.1094 25.9964 43.459C25.3892 43.8088 24.7008 43.993 24 43.993C23.2992 43.993 22.6108 43.8088 22.0036 43.459C21.3964 43.1094 20.8916 42.6062 20.54 42" stroke="white" stroke-width="1.5" stroke-linecap="round" stroke-linejoin="round"/>
</svg>
