<svg width="51" height="51" viewBox="0 0 51 51" fill="none" xmlns="http://www.w3.org/2000/svg">
<path d="M6.375 44.625L9.88125 36.55C7.19878 32.7422 5.99817 28.0862 6.50472 23.456C7.01127 18.8258 9.19017 14.5396 12.6325 11.4018C16.0748 8.26394 20.544 6.49023 25.2012 6.41349C29.8584 6.33674 34.3835 7.96225 37.9274 10.9849C41.4712 14.0076 43.7902 18.2197 44.449 22.8307C45.1078 27.4418 44.0613 32.1347 41.5057 36.0289C38.9502 39.9231 35.0613 42.7508 30.569 43.9814C26.0766 45.212 21.2896 44.7608 17.1063 42.7125L6.375 44.625" stroke="white" stroke-width="2" stroke-linecap="round" stroke-linejoin="round"/>
<path d="M19.125 21.25C19.125 21.5318 19.2369 21.802 19.4362 22.0013C19.6355 22.2006 19.9057 22.3125 20.1875 22.3125C20.4693 22.3125 20.7395 22.2006 20.9388 22.0013C21.1381 21.802 21.25 21.5318 21.25 21.25V19.125C21.25 18.8432 21.1381 18.573 20.9388 18.3737C20.7395 18.1744 20.4693 18.0625 20.1875 18.0625C19.9057 18.0625 19.6355 18.1744 19.4362 18.3737C19.2369 18.573 19.125 18.8432 19.125 19.125V21.25ZM19.125 21.25C19.125 24.0679 20.2444 26.7704 22.237 28.763C24.2296 30.7556 26.9321 31.875 29.75 31.875H31.875C32.1568 31.875 32.427 31.7631 32.6263 31.5638C32.8256 31.3645 32.9375 31.0943 32.9375 30.8125C32.9375 30.5307 32.8256 30.2605 32.6263 30.0612C32.427 29.8619 32.1568 29.75 31.875 29.75H29.75C29.4682 29.75 29.198 29.8619 28.9987 30.0612C28.7994 30.2605 28.6875 30.5307 28.6875 30.8125C28.6875 31.0943 28.7994 31.3645 28.9987 31.5638C29.198 31.7631 29.4682 31.875 29.75 31.875" stroke="white" stroke-width="2" stroke-linecap="round" stroke-linejoin="round"/>
</svg>
