<svg width="51" height="51" viewBox="0 0 51 51" fill="none" xmlns="http://www.w3.org/2000/svg">
<path d="M29.75 25.5L22.3125 29.75V21.25L29.75 25.5Z" fill="#21272A" stroke="#FDFEFF" stroke-width="1.5" stroke-linecap="round" stroke-linejoin="round"/>
<path d="M4.25 27.0035V23.9964C4.25 17.8438 4.25 14.7675 6.17417 12.7881C8.09835 10.8088 11.1277 10.7231 17.1863 10.5517C20.0573 10.4705 22.9899 10.4124 25.5 10.4124C28.0101 10.4124 30.9428 10.4705 33.8136 10.5517C39.8722 10.7231 42.9016 10.8088 44.8258 12.7881C46.75 14.7675 46.75 17.8438 46.75 23.9964V27.0035C46.75 33.156 46.75 36.2324 44.8258 38.2116C42.9016 40.191 39.8724 40.2767 33.8139 40.4482C30.9428 40.5293 28.0101 40.5876 25.5 40.5876C22.9899 40.5876 20.0572 40.5293 17.1861 40.4482C11.1276 40.2767 8.09831 40.191 6.17414 38.2116C4.25 36.2324 4.25 33.156 4.25 27.0035Z" stroke="#FDFEFF" stroke-width="1.5"/>
</svg>
